<svg width="649" height="421" viewBox="0 0 649 421" fill="none" xmlns="http://www.w3.org/2000/svg">
<g filter="url(#filter0_d_89_63)">
<mask id="path-1-inside-1_89_63" fill="white">
<path fill-rule="evenodd" clip-rule="evenodd" d="M355.517 405.434C512.085 405.434 639.009 315.794 639.009 205.217C639.009 94.6402 512.085 5 355.517 5C198.948 5 72.0247 94.6402 72.0247 205.217C72.0247 218.17 73.7664 230.836 77.0934 243.104C73.8254 250.086 70.1352 257.541 66.4264 264.175C52.0419 289.905 10 305.456 10 305.456C10 305.456 61.8455 301.792 88.4101 283.403C89.8205 282.426 91.2285 281.383 92.6261 280.289C134.678 353.669 236.538 405.434 355.517 405.434Z"/>
</mask>
<path fill-rule="evenodd" clip-rule="evenodd" d="M355.517 405.434C512.085 405.434 639.009 315.794 639.009 205.217C639.009 94.6402 512.085 5 355.517 5C198.948 5 72.0247 94.6402 72.0247 205.217C72.0247 218.17 73.7664 230.836 77.0934 243.104C73.8254 250.086 70.1352 257.541 66.4264 264.175C52.0419 289.905 10 305.456 10 305.456C10 305.456 61.8455 301.792 88.4101 283.403C89.8205 282.426 91.2285 281.383 92.6261 280.289C134.678 353.669 236.538 405.434 355.517 405.434Z" fill="#F5F1E0"/>
<path d="M77.0934 243.104L78.9048 243.952L79.2156 243.288L79.0237 242.581L77.0934 243.104ZM66.4264 264.175L64.6807 263.199L64.6807 263.199L66.4264 264.175ZM10 305.456L9.30613 303.58L10.141 307.451L10 305.456ZM88.4101 283.403L89.5485 285.047L89.5485 285.047L88.4101 283.403ZM92.6261 280.289L94.3614 279.294L93.2126 277.29L91.3932 278.714L92.6261 280.289ZM637.009 205.217C637.009 259.682 605.754 309.188 554.822 345.158C503.896 381.125 433.437 403.434 355.517 403.434V407.434C434.165 407.434 505.452 384.923 557.13 348.425C608.802 311.932 641.009 261.329 641.009 205.217H637.009ZM355.517 7C433.437 7 503.896 29.309 554.822 65.2759C605.754 101.246 637.009 150.752 637.009 205.217H641.009C641.009 149.105 608.802 98.5024 557.13 62.0086C505.452 25.5111 434.165 3 355.517 3V7ZM74.0247 205.217C74.0247 150.752 105.28 101.246 156.211 65.2759C207.138 29.309 277.596 7 355.517 7V3C276.869 3 205.582 25.5111 153.904 62.0086C102.231 98.5024 70.0247 149.105 70.0247 205.217H74.0247ZM79.0237 242.581C75.7419 230.479 74.0247 217.989 74.0247 205.217H70.0247C70.0247 218.351 71.7909 231.193 75.1632 243.628L79.0237 242.581ZM68.1721 265.151C71.9131 258.46 75.6257 250.958 78.9048 243.952L75.282 242.257C72.025 249.215 68.3573 256.623 64.6807 263.199L68.1721 265.151ZM10 305.456C10.6939 307.332 10.6944 307.332 10.6951 307.332C10.6956 307.331 10.6965 307.331 10.6974 307.331C10.6992 307.33 10.7016 307.329 10.7047 307.328C10.7108 307.326 10.7195 307.322 10.7307 307.318C10.7531 307.31 10.7855 307.298 10.8277 307.282C10.9121 307.25 11.0354 307.203 11.1957 307.141C11.5163 307.017 11.9845 306.834 12.5834 306.592C13.7809 306.109 15.5017 305.391 17.6091 304.451C21.8217 302.57 27.5907 299.791 33.8188 296.196C46.1982 289.051 60.7051 278.507 68.1721 265.151L64.6807 263.199C57.7632 275.572 44.0569 285.669 31.8192 292.732C25.7388 296.241 20.0983 298.959 15.9785 300.798C13.9197 301.717 12.2436 302.416 11.0858 302.883C10.507 303.117 10.0579 303.293 9.7556 303.409C9.60445 303.468 9.49 303.511 9.41438 303.54C9.37656 303.554 9.34846 303.565 9.33033 303.571C9.32127 303.575 9.31469 303.577 9.31065 303.579C9.30863 303.58 9.30724 303.58 9.30648 303.58C9.30611 303.58 9.30602 303.581 9.30583 303.581C9.3059 303.581 9.30613 303.58 10 305.456ZM87.2718 281.758C74.3482 290.705 55.0931 296.158 38.8559 299.363C30.7761 300.959 23.5169 301.984 18.2785 302.611C15.6601 302.924 13.5489 303.137 12.0952 303.271C11.3684 303.339 10.806 303.386 10.427 303.417C10.2376 303.433 10.0939 303.444 9.99844 303.451C9.95071 303.454 9.91503 303.457 9.89169 303.459C9.88002 303.46 9.87144 303.46 9.86598 303.461C9.86325 303.461 9.8613 303.461 9.86014 303.461C9.85956 303.461 9.85928 303.461 9.85898 303.461C9.8589 303.461 9.85901 303.461 10 305.456C10.141 307.451 10.1415 307.451 10.1422 307.451C10.1427 307.451 10.1436 307.451 10.1446 307.451C10.1466 307.451 10.1494 307.451 10.1529 307.45C10.1601 307.45 10.1703 307.449 10.1837 307.448C10.2104 307.446 10.2495 307.443 10.3006 307.439C10.403 307.432 10.5537 307.42 10.7504 307.404C11.1438 307.372 11.7213 307.323 12.4641 307.254C13.9494 307.117 16.0961 306.9 18.7534 306.582C24.0661 305.947 31.4286 304.907 39.6307 303.288C55.9575 300.064 75.9074 294.49 89.5485 285.047L87.2718 281.758ZM91.3932 278.714C90.0228 279.787 88.6463 280.807 87.2717 281.758L89.5485 285.047C90.9946 284.046 92.4342 282.979 93.859 281.864L91.3932 278.714ZM355.517 403.434C237.014 403.434 135.951 351.869 94.3614 279.294L90.8909 281.283C133.405 355.47 236.062 407.434 355.517 407.434V403.434Z" fill="black" mask="url(#path-1-inside-1_89_63)"/>
</g>
<defs>
<filter id="filter0_d_89_63" x="0" y="0" width="649.008" height="420.438" filterUnits="userSpaceOnUse" color-interpolation-filters="sRGB">
<feFlood flood-opacity="0" result="BackgroundImageFix"/>
<feColorMatrix in="SourceAlpha" type="matrix" values="0 0 0 0 0 0 0 0 0 0 0 0 0 0 0 0 0 0 127 0" result="hardAlpha"/>
<feOffset dy="5"/>
<feGaussianBlur stdDeviation="5"/>
<feComposite in2="hardAlpha" operator="out"/>
<feColorMatrix type="matrix" values="0 0 0 0 0 0 0 0 0 0 0 0 0 0 0 0 0 0 0.25 0"/>
<feBlend mode="normal" in2="BackgroundImageFix" result="effect1_dropShadow_89_63"/>
<feBlend mode="normal" in="SourceGraphic" in2="effect1_dropShadow_89_63" result="shape"/>
</filter>
</defs>
</svg>
