<svg width="1848" height="485" viewBox="0 0 1848 485" fill="none" xmlns="http://www.w3.org/2000/svg">
<rect width="1838.96" height="485" transform="translate(4.07812)" fill="#F5F1E0"/>
<g filter="url(#filter0_d_84_42)">
<path fill-rule="evenodd" clip-rule="evenodd" d="M1080.33 5.56512C1078.86 6.31555 1076.92 7.82375 1074.44 10.3796C1070.11 14.8461 1068.07 20.7693 1067.16 27.5066C1066.41 33.026 1066.44 38.8369 1066.46 44.6113V44.6152V44.619C1066.47 45.9445 1066.48 47.268 1066.47 48.5857C1066.46 55.4421 1066.19 62.3137 1063.9 67.6161C1062.73 70.3416 1060.99 72.7276 1058.44 74.4922C1055.9 76.2509 1052.73 77.2758 1048.86 77.5607C1044.86 77.8547 1041.51 77.2384 1038.77 75.6926C1036.01 74.1414 1034.11 71.7882 1032.77 69.0332C1030.19 63.6906 1029.56 56.3708 1029.11 49.0821C1029.05 48.1155 1029 47.1456 1028.94 46.1743C1028.56 39.6005 1028.18 32.9671 1026.8 26.9324C1025.23 20.0543 1022.45 14.359 1017.26 10.6772C1011.81 6.80383 1008.67 6.41624 1006.92 7.07923C1005.15 7.74623 1003.49 9.95926 1002.28 14.7858C1001.12 19.4494 1000.58 25.7396 1000.35 33.1604C1000.16 38.9924 1000.17 45.3952 1000.18 52.109V52.1158C1000.18 53.1794 1000.18 54.2509 1000.18 55.3291C1000.18 56.0759 1000.18 56.826 1000.18 57.579C1000.16 74.86 999.831 93.6603 995.965 108.482C994.027 115.912 991.152 122.549 986.812 127.529C982.415 132.575 976.594 135.819 969.066 136.512C961.273 137.23 955.066 134.971 950.282 130.439C945.595 125.998 942.45 119.547 940.284 112.145C935.96 97.3683 935.247 77.7232 934.971 59.4661C934.932 56.8831 934.902 54.3282 934.873 51.8147C934.797 45.3748 934.725 39.2066 934.513 33.5343C934.219 25.6295 933.66 18.8968 932.506 13.9313C931.929 11.4495 931.233 9.54625 930.436 8.19853C929.646 6.86339 928.858 6.23624 928.134 5.97739C927.425 5.72383 926.373 5.6794 924.751 6.33027C923.101 6.99172 921.029 8.31062 918.473 10.5274C914.631 13.8595 912.469 18.6427 911.131 24.267C910.05 28.8119 909.557 33.6484 909.067 38.4602C908.946 39.6478 908.825 40.8338 908.696 42.0136C908.065 47.7614 907.216 53.5665 904.777 57.7801C903.513 59.9644 901.782 61.8022 899.394 62.9803C897.02 64.1513 894.203 64.5691 890.926 64.2715C887.705 63.9791 885.074 62.9903 883.02 61.3008C880.973 59.617 879.695 57.3978 878.899 54.9754C877.356 50.2799 877.477 44.2858 877.649 38.5875C877.659 38.2701 877.669 37.9531 877.679 37.6365L877.682 37.5127C877.854 31.9727 878.021 26.5814 877.144 21.8612C876.228 16.9332 874.244 13.1271 870.214 10.805C866.653 8.75366 865.386 9.16008 865.069 9.36295C864.867 9.49182 864.544 9.8137 864.24 10.6458C863.934 11.4834 863.716 12.6605 863.62 14.2163C863.429 17.3315 863.754 21.4586 864.366 26.3153C864.821 29.931 865.42 33.8459 866.047 37.9401C866.259 39.3249 866.474 40.7302 866.688 42.1514C868.359 53.2615 869.955 65.354 868.92 74.8631C868.402 79.627 867.198 84.0295 864.774 87.3762C862.266 90.8391 858.592 92.9742 853.668 93.3375C849.026 93.68 845.229 92.954 842.256 91.0786C839.26 89.1888 837.415 86.3305 836.312 83.0287C834.177 76.6363 834.615 67.8544 835.245 58.9602C835.319 57.9203 835.396 56.875 835.473 55.8261L835.475 55.8068V55.8063V55.8058C836.075 47.6485 836.691 39.2777 835.971 31.5719C835.162 22.8969 832.692 15.536 827.003 10.513C824.287 8.11582 822.156 6.70554 820.526 6.01643C818.911 5.33393 818.083 5.47283 817.658 5.66951C817.189 5.88649 816.547 6.47801 815.941 8.02127C815.341 9.5484 814.902 11.6958 814.636 14.478C814.105 20.0334 814.312 27.5165 814.811 36.2754C815.042 40.3178 815.332 44.5973 815.633 49.0508L815.705 50.1077C816.032 54.9361 816.367 59.955 816.649 65.0544C817.772 85.3639 818.072 107.311 813.407 124.237C811.067 132.729 807.422 140.175 801.807 145.511C796.131 150.905 788.633 153.961 779.003 153.961C771.001 153.961 764.574 150.877 759.499 145.645C754.492 140.482 750.856 133.293 748.137 125.073C742.706 108.652 740.68 87.2845 739.338 67.3638C739.063 63.2882 738.817 59.2801 738.578 55.3851C737.635 40.0277 736.8 26.4279 734.747 17.3752C734.112 14.5712 733.385 12.3361 732.565 10.6836C731.732 9.00548 730.921 8.16631 730.25 7.80185C729.694 7.50003 728.955 7.36818 727.74 7.82916C726.624 8.25246 725.204 9.14984 723.451 10.7335L723.541 10.8124C717.359 17.8475 715.044 28.3465 714.539 40.8371C714.185 49.5974 714.721 58.9697 715.262 68.4169V68.4175V68.418L715.262 68.4209L715.262 68.424C715.492 72.4444 715.723 76.4784 715.886 80.4845C716.424 93.6909 716.225 106.618 712.395 116.67C710.456 121.757 707.559 126.192 703.3 129.552C699.039 132.914 693.572 135.076 686.695 135.868C679.304 136.721 673.425 134.88 668.92 130.835C664.514 126.88 661.668 121.036 659.769 114.318C655.984 100.927 655.652 82.85 655.433 65.6932L655.413 64.0678C655.202 47.2523 655.004 31.5455 652.036 21.0915C650.506 15.7023 648.383 12.2643 645.665 10.6138C643.078 9.04251 639.29 8.71133 633.413 11.1441C625.954 14.2315 621.957 20.2561 619.671 28.0789C617.466 35.6275 616.952 44.5089 616.433 53.4825V53.483C616.407 53.9415 616.38 54.4001 616.353 54.8589C615.815 64.082 615.18 73.4782 612.206 80.6214C610.69 84.2611 608.518 87.4548 605.334 89.7676C602.138 92.0888 598.118 93.3808 593.155 93.5383C588.047 93.7005 583.895 92.4468 580.602 89.9473C577.347 87.4768 575.153 83.9577 573.619 79.9689C570.61 72.1438 569.87 61.7256 569.159 51.7182L569.148 51.5693C568.417 41.2754 567.704 31.3624 564.995 23.8312C563.657 20.1128 561.889 17.1529 559.541 15.0556C557.231 12.9918 554.209 11.6288 550.089 11.3275C545.382 10.9832 542.314 12.1359 540.201 14.0884C538.01 16.1122 536.508 19.3031 535.612 23.6603C533.804 32.4556 534.712 44.6119 535.68 57.3691L535.694 57.5555C536.637 69.9921 537.623 82.9849 535.642 92.7955C534.639 97.7642 532.821 102.229 529.58 105.415C526.265 108.673 521.745 110.317 515.954 110.146C510.09 109.972 505.61 107.735 502.385 103.913C499.244 100.191 497.446 95.1494 496.439 89.5717C494.431 78.4498 495.396 64.0908 496.452 50.7526C496.533 49.7317 496.614 48.7164 496.695 47.708L496.701 47.6416L496.703 47.6107L496.703 47.6089C497.153 41.9986 497.586 36.6052 497.804 31.6617C498.062 25.781 498.006 20.7161 497.36 16.8274C496.692 12.8104 495.508 10.7542 494.168 9.9314C492.962 9.19121 490.698 8.92333 486.31 11.0781C480.867 13.7513 478.179 18.4955 476.894 24.6731C475.646 30.6787 475.802 37.6654 475.961 44.7942L475.97 45.2341L475.983 45.8085C476.142 53.0663 476.248 60.5865 474.339 66.4311C473.36 69.4259 471.81 72.1347 469.351 74.1736C466.88 76.2219 463.692 77.4282 459.73 77.7544C455.695 78.0866 452.29 77.5164 449.462 76.0425C446.624 74.563 444.585 72.2857 443.1 69.5781C440.215 64.3193 439.247 57.0676 438.499 49.7959C438.377 48.6147 438.261 47.4274 438.145 46.2379C437.525 39.8909 436.898 33.4794 435.394 27.5753C433.621 20.611 430.713 14.7408 425.496 10.8354C422.696 8.73884 420.526 7.56315 418.891 7.04567C417.284 6.537 416.456 6.73683 416.005 6.99324C415.505 7.27719 414.887 7.95794 414.37 9.53173C413.858 11.0927 413.544 13.2446 413.444 15.9974C413.246 21.4957 413.915 28.8186 415.013 37.3509C415.716 42.8202 416.583 48.6974 417.488 54.8334L417.488 54.8377L417.491 54.8525C417.995 58.2727 418.511 61.7731 419.017 65.328C421.828 85.0601 424.324 106.361 422.357 123.029C421.372 131.369 419.244 138.827 415.249 144.386C411.169 150.061 405.256 153.591 397.204 154.15C389.005 154.719 382.657 151.921 377.974 146.632C373.402 141.468 370.556 134.092 368.794 125.664C365.27 108.806 365.859 86.5543 367 65.8419C367.253 61.2441 367.532 56.7297 367.802 52.362L367.802 52.3578L367.803 52.3559C368.764 36.8203 369.61 23.1419 368.756 14.1764C368.485 11.3338 368.055 9.1358 367.476 7.57893C366.881 5.97544 366.28 5.45165 365.948 5.29653C365.712 5.18579 365.081 5.01696 363.624 5.76043C362.154 6.51086 360.212 8.01906 357.733 10.5749C353.4 15.0414 351.366 20.9646 350.452 27.7019C349.703 33.221 349.731 39.0316 349.758 44.8057V44.8066C349.764 46.1347 349.77 47.4608 349.767 48.7811C349.751 55.6374 349.487 62.509 347.198 67.8114C346.022 70.5369 344.285 72.9229 341.737 74.6875C339.198 76.4462 336.023 77.4711 332.151 77.7561C328.157 78.05 324.807 77.4337 322.062 75.8879C319.308 74.3367 317.401 71.9835 316.068 69.2285C313.482 63.8859 312.856 56.5661 312.408 49.2774C312.349 48.3109 312.293 47.3411 312.236 46.3699C311.855 39.796 311.471 33.1625 310.093 27.1277C308.523 20.2496 305.743 14.5544 300.557 10.8726C295.102 6.99915 291.968 6.61154 290.213 7.27454C288.448 7.94154 286.784 10.1546 285.577 14.9811C284.41 19.6447 283.873 25.9349 283.64 33.3557C283.457 39.1885 283.463 45.5923 283.47 52.3072V52.3075V52.3111C283.472 54.1115 283.474 55.9342 283.472 57.7743C283.455 75.0553 283.125 93.8555 279.259 108.677C277.322 116.107 274.447 122.744 270.107 127.724C265.709 132.77 259.889 136.015 252.36 136.708C244.568 137.425 238.361 135.166 233.577 130.634C228.889 126.193 225.745 119.742 223.579 112.34C219.255 97.5635 218.541 77.9185 218.266 59.6614C218.227 57.078 218.197 54.5228 218.167 52.0089C218.092 45.5694 218.019 39.4016 217.808 33.7296C217.514 25.8248 216.954 19.0921 215.8 14.1266C215.223 11.6448 214.527 9.74156 213.73 8.39383C212.941 7.0587 212.153 6.43155 211.429 6.1727C210.719 5.91914 209.668 5.87471 208.045 6.52558C206.396 7.18703 204.323 8.50593 201.767 10.7227C197.926 14.0548 195.764 18.838 194.426 24.4624C193.345 29.0069 192.852 33.843 192.362 38.6546V38.6547L192.362 38.6556C192.241 39.8431 192.12 41.0291 191.99 42.2089C191.359 47.9568 190.51 53.7619 188.072 57.9755C186.808 60.1597 185.077 61.9976 182.689 63.1757C180.315 64.3466 177.498 64.7644 174.22 64.4669C171 64.1745 168.368 63.1857 166.314 61.4961C164.268 59.8124 162.99 57.5931 162.194 55.1708C160.65 50.4752 160.772 44.4812 160.944 38.7828C160.955 38.424 160.966 38.0657 160.977 37.708C161.148 32.168 161.315 26.7767 160.438 22.0565C159.523 17.1285 157.539 13.3224 153.508 11.0004C149.948 8.94897 148.68 9.3554 148.363 9.55826C148.162 9.68714 147.838 10.009 147.534 10.8412C147.229 11.6787 147.01 12.8558 146.914 14.4116C146.723 17.5268 147.048 21.6539 147.66 26.5106C148.116 30.1264 148.715 34.0416 149.341 38.1359L149.342 38.1362C149.553 39.5208 149.768 40.9258 149.982 42.3467C151.653 53.4568 153.25 65.5493 152.215 75.0585C151.696 79.8224 150.492 84.2248 148.069 87.5715C145.561 91.0344 141.886 93.1695 136.962 93.5328C132.321 93.8754 128.523 93.1493 125.55 91.274C122.554 89.3841 120.709 86.5258 119.606 83.2241C117.471 76.8316 117.909 68.0498 118.54 59.1555C118.614 58.1109 118.691 57.0608 118.769 56.0071L118.769 56.0021C119.369 47.8445 119.985 39.4734 119.266 31.7673C118.456 23.0923 115.987 15.7313 110.297 10.7083C107.621 8.34639 105.551 7.19051 104.016 6.79447C102.623 6.43516 101.691 6.6921 100.89 7.32518C99.9526 8.0658 98.9783 9.5065 98.1051 11.9242C97.2459 14.3035 96.5701 17.3869 96.0634 21.1154C94.1546 35.1586 94.8174 56.8022 95.5285 80.0227C95.5777 81.6282 95.6271 83.2412 95.6759 84.8597C96.4248 109.702 97.0245 135.765 94.2482 155C92.8655 164.581 90.6029 172.82 86.8516 178.394C84.9502 181.219 82.6023 183.455 79.7052 184.774C76.787 186.103 73.5124 186.408 69.9374 185.695C62.7929 184.27 57.6789 179.789 54.1211 173.464C50.6058 167.214 48.5439 159.072 47.3739 149.956C45.0339 131.726 46.1657 108.698 47.2827 86.9788L47.3352 85.9596C48.4432 64.4305 49.4744 44.3935 47.2946 30.9621C46.1766 24.0728 44.2998 19.5628 41.7409 17.3238C39.4891 15.3534 36.1072 14.6772 30.366 17.1991C29.4761 17.59 28.3917 18.7965 27.3979 21.609C26.4394 24.3217 25.7515 27.997 25.2424 32.4278C24.5174 38.7369 24.1888 46.2048 23.8438 54.0456L23.8438 54.046C23.7032 57.241 23.5599 60.4978 23.386 63.7634C22.793 74.8953 21.8423 86.1198 19.3112 94.5985C18.0449 98.8407 16.3214 102.618 13.8693 105.369C11.3448 108.202 8.06928 109.91 4 109.91V104.91C6.48596 104.91 8.45078 103.934 10.1366 102.042C11.8947 100.07 13.3514 97.0834 14.5202 93.1683C16.8593 85.3326 17.7981 74.6672 18.3931 63.4975C18.5603 60.3587 18.7002 57.1781 18.839 54.0244C19.1876 46.1036 19.5287 38.352 20.2751 31.857C20.7979 27.307 21.5365 23.1897 22.6836 19.9432C23.7954 16.7965 25.496 13.8772 28.3552 12.6213C35.0834 9.66582 40.7686 9.82923 45.0334 13.5609C48.9912 17.0239 51.0806 23.0782 52.2301 30.1612C54.4967 44.1279 53.4423 64.5952 52.3543 85.7164L52.2761 87.2356C51.1523 109.087 50.0621 131.625 52.3332 149.319C53.4686 158.165 55.4206 165.575 58.479 171.012C61.4949 176.374 65.5146 179.715 70.9155 180.792C73.6132 181.33 75.801 181.058 77.6336 180.224C79.4873 179.38 81.1786 177.868 82.7036 175.602C85.8048 170.994 87.9433 163.683 89.2995 154.286C92.0012 135.568 91.4307 109.974 90.6782 85.0104C90.6273 83.3214 90.5755 81.6348 90.5238 79.9533C89.818 56.9667 89.1411 34.9201 91.1089 20.442C91.6403 16.5326 92.3767 13.0659 93.4024 10.2258C94.4143 7.42423 95.7978 4.97636 97.7898 3.4022C99.9179 1.72048 102.487 1.23644 105.265 1.95294C107.9 2.63272 110.671 4.36945 113.606 6.95996C120.669 13.1954 123.381 22.0566 124.244 31.3026C125.005 39.4563 124.354 48.2756 123.756 56.3769C123.677 57.4343 123.6 58.4794 123.527 59.5092C122.878 68.6689 122.59 76.3751 124.349 81.64C125.193 84.167 126.45 85.9296 128.218 87.045C130.009 88.1749 132.638 88.8383 136.594 88.5464C140.105 88.2873 142.408 86.8629 144.019 84.6388C145.714 82.2984 146.769 78.8862 147.244 74.5174C148.197 65.7609 146.726 54.3152 145.038 43.0903C144.829 41.703 144.617 40.3191 144.407 38.9466L144.407 38.9442C143.777 34.8318 143.164 30.8222 142.699 27.1354C142.082 22.2356 141.702 17.7163 141.924 14.1049C142.035 12.2973 142.303 10.591 142.838 9.12628C143.374 7.65611 144.246 6.25678 145.668 5.34673C148.598 3.47174 152.292 4.52946 156.004 6.66794C161.748 9.97701 164.282 15.3724 165.354 21.1434C166.334 26.4189 166.149 32.3313 165.979 37.7214V37.7215L165.979 37.7272C165.966 38.1325 165.954 38.5348 165.942 38.9336C165.763 44.8564 165.727 49.9079 166.944 53.6096C167.527 55.3859 168.359 56.7032 169.491 57.6348C170.616 58.5606 172.234 59.266 174.672 59.4874C177.277 59.7239 179.124 59.3589 180.477 58.6915C181.815 58.0313 182.874 56.9752 183.744 55.4711C185.575 52.3079 186.373 47.5585 187.02 41.6634C187.14 40.573 187.254 39.4484 187.371 38.3001C187.862 33.4636 188.396 28.2056 189.561 23.3051C191.014 17.1991 193.525 11.2527 198.491 6.94556C201.265 4.53948 203.818 2.83389 206.184 1.88491C208.576 0.925372 210.93 0.684619 213.112 1.46451C215.279 2.23912 216.867 3.87521 218.034 5.8488C219.194 7.80979 220.035 10.2607 220.67 12.9943C221.941 18.4596 222.509 25.6025 222.804 33.5436C223.018 39.2838 223.092 45.5504 223.168 52.0161C223.197 54.5159 223.227 57.0455 223.265 59.586C223.542 77.9531 224.275 96.9161 228.378 110.936C230.425 117.933 233.239 123.427 237.015 127.004C240.696 130.49 245.458 132.322 251.902 131.729C258.109 131.157 262.757 128.547 266.337 124.439C269.975 120.264 272.587 114.448 274.421 107.415C278.099 93.3128 278.455 75.1545 278.472 57.7694C278.473 55.9576 278.472 54.1539 278.47 52.3654V52.3652V52.3649C278.463 45.6362 278.457 39.1224 278.643 33.1988C278.877 25.7236 279.422 18.9816 280.726 13.7678C281.989 8.717 284.185 4.20739 288.446 2.59735C292.717 0.983287 297.774 2.76422 303.452 6.79573C310.045 11.477 313.26 18.5347 314.968 26.0148C316.446 32.4905 316.855 39.586 317.231 46.118V46.1183C317.287 47.0828 317.341 48.0349 317.399 48.971C317.859 56.4665 318.488 62.7516 320.568 67.0501C321.568 69.1156 322.848 70.592 324.516 71.5313C326.193 72.476 328.501 73.0112 331.784 72.7695C334.977 72.5346 337.242 71.7192 338.89 70.5772C340.531 69.4412 341.729 67.8662 342.608 65.8304C344.429 61.6101 344.75 55.7577 344.767 48.769C344.77 47.5343 344.764 46.2681 344.757 44.9791L344.757 44.9696C344.728 39.1789 344.697 32.9312 345.497 27.0298C346.483 19.7601 348.768 12.6354 354.144 7.09342C356.779 4.37767 359.168 2.4213 361.351 1.30687C363.549 0.185489 365.896 -0.248471 368.068 0.768062C370.145 1.74021 371.383 3.73609 372.163 5.83741C372.961 7.98532 373.445 10.6772 373.733 13.7023C374.629 23.0994 373.744 37.359 372.776 52.9804L372.775 52.9849L372.775 52.9929C372.509 57.2889 372.236 61.6878 371.992 66.1167C370.848 86.8977 370.318 108.517 373.688 124.64C375.374 132.703 377.979 139.095 381.718 143.318C385.347 147.416 390.17 149.626 396.858 149.162C403.439 148.705 407.986 145.924 411.189 141.468C414.476 136.894 416.452 130.4 417.391 122.443C419.271 106.518 416.889 85.846 414.067 66.033C413.568 62.5293 413.055 59.0486 412.551 55.6321L412.551 55.6308L412.551 55.6297C411.641 49.459 410.762 43.4978 410.053 37.9888C408.953 29.438 408.233 21.7604 408.448 15.8167C408.555 12.8485 408.899 10.1688 409.62 7.97248C410.336 5.78889 411.527 3.78633 413.536 2.6455C415.593 1.47713 417.974 1.51073 420.4 2.27882C422.799 3.03811 425.486 4.5822 428.493 6.83286C434.996 11.7016 438.326 18.8258 440.24 26.3415C441.846 32.6496 442.514 39.5072 443.131 45.8439C443.245 47.0105 443.357 48.1594 443.473 49.284C444.239 56.7296 445.165 62.9466 447.483 67.1735C448.6 69.2088 449.989 70.6786 451.774 71.6087C453.569 72.5444 455.979 73.0463 459.32 72.7712C462.474 72.5116 464.629 71.5937 466.16 70.3244C467.702 69.0457 468.813 67.2434 469.586 64.8784C471.178 60.0036 471.148 53.4097 470.984 45.9178L470.972 45.3741L470.957 44.7018V44.7013C470.8 37.7604 470.63 30.2409 471.999 23.6553C473.472 16.5703 476.807 10.1748 484.106 6.59017C488.989 4.19197 493.343 3.55883 496.783 5.6701C500.088 7.6988 501.578 11.7108 502.292 16.0077C503.027 20.433 503.061 25.9277 502.799 31.8815C502.577 36.9239 502.136 42.4241 501.685 48.0315L501.683 48.0647L501.679 48.1134C501.598 49.122 501.517 50.1339 501.436 51.1472C500.369 64.635 499.488 78.3171 501.36 88.6834C502.293 93.8498 503.866 97.9146 506.207 100.689C508.464 103.364 511.579 105.014 516.102 105.148C520.799 105.287 523.907 103.98 526.075 101.849C528.317 99.6449 529.837 96.2818 530.741 91.8058C532.564 82.7762 531.661 70.4952 530.694 57.7473L530.664 57.3477C529.726 44.9872 528.754 32.1898 530.715 22.6535C531.714 17.7935 533.534 13.4404 536.808 10.4158C540.159 7.31993 544.698 5.91985 550.454 6.34081C555.577 6.7155 559.668 8.46527 562.872 11.3265C566.038 14.1542 568.186 17.9318 569.699 22.1388C572.654 30.3528 573.401 40.8773 574.108 50.8312L574.136 51.2149C574.868 61.5223 575.588 71.1573 578.286 78.1742C579.614 81.6257 581.349 84.2377 583.625 85.9646C585.862 87.6627 588.84 88.6728 592.997 88.5409C597.154 88.4089 600.155 87.3492 602.395 85.7221C604.647 84.0866 606.326 81.7354 607.59 78.6996C610.174 72.4918 610.81 64.0143 611.362 54.5676C611.389 54.1036 611.416 53.6375 611.443 53.1697L611.452 52.9989V52.9978C611.959 44.2063 612.501 34.7923 614.872 26.6767C617.418 17.9643 622.175 10.3842 631.5 6.52422C638.172 3.76279 643.787 3.62345 648.261 6.34021C652.604 8.97787 655.199 13.9242 656.846 19.7259C660.001 30.8395 660.203 47.1285 660.407 63.5153L660.421 64.6758L660.433 65.6295C660.654 82.9885 661.012 100.335 664.581 112.958C666.359 119.247 668.856 124.058 672.26 127.115C675.566 130.082 679.965 131.611 686.122 130.901C692.254 130.194 696.798 128.313 700.203 125.627C703.61 122.939 706.034 119.321 707.722 114.89C711.146 105.905 711.429 93.9332 710.89 80.688C710.734 76.8692 710.51 72.9439 710.284 68.9815C709.737 59.4245 709.179 49.6514 709.543 40.6351C710.045 28.2195 712.296 16.5309 719.209 8.18737L719.043 8.01705C721.451 5.66661 723.746 3.99639 725.966 3.15429C728.275 2.27842 730.568 2.28548 732.635 3.40747C734.587 4.46684 735.99 6.33641 737.044 8.46115C738.111 10.6115 738.944 13.2733 739.624 16.2695C741.775 25.7587 742.643 39.9313 743.586 55.3401L743.586 55.3417C743.821 59.1781 744.061 63.0912 744.326 67.0277C745.672 86.9999 747.678 107.765 752.884 123.503C755.484 131.362 758.817 137.759 763.088 142.164C767.292 146.498 772.452 148.961 779.004 148.961C787.476 148.961 793.703 146.315 798.363 141.886C803.083 137.4 806.384 130.902 808.587 122.909C813.008 106.865 812.782 85.6787 811.657 65.3303C811.377 60.2652 811.043 55.2744 810.716 50.4453L810.644 49.383C810.343 44.9363 810.051 40.6305 809.82 36.5597C809.321 27.8079 809.087 19.9794 809.659 14.0024C809.944 11.0184 810.442 8.34445 811.287 6.19252C812.127 4.05673 813.44 2.11151 815.558 1.13158C817.72 0.13135 820.112 0.413165 822.472 1.41093C824.817 2.40209 827.417 4.2094 830.312 6.76465C837.375 13.0001 840.087 21.8613 840.95 31.1072C841.711 39.261 841.06 48.0804 840.461 56.1817L840.458 56.2303C840.414 56.825 840.37 57.4158 840.327 58.0022C840.295 58.442 840.264 58.8793 840.233 59.3139C839.583 68.4736 839.296 76.1798 841.055 81.4447C841.899 83.9717 843.155 85.7343 844.923 86.8497C846.715 87.9796 849.344 88.643 853.3 88.3511C856.81 88.092 859.114 86.6676 860.725 84.4435C862.419 82.1031 863.474 78.6909 863.95 74.322C864.903 65.5656 863.431 54.1199 861.743 42.8949C861.535 41.5082 861.323 40.1247 861.113 38.7526L861.112 38.7452C860.483 34.6341 859.869 30.6258 859.405 26.9401C858.788 22.0403 858.407 17.521 858.629 13.9096C858.74 12.102 859.008 10.3957 859.543 8.93096C860.08 7.46079 860.951 6.06147 862.374 5.15142C865.304 3.27643 868.998 4.33415 872.71 6.47263C878.453 9.7817 880.988 15.1771 882.06 20.9481C883.04 26.2236 882.854 32.1361 882.685 37.5262L882.669 38.0346C882.661 38.2703 882.654 38.5049 882.647 38.7383C882.468 44.661 882.432 49.7126 883.649 53.4143C884.233 55.1906 885.064 56.5079 886.196 57.4395C887.322 58.3653 888.939 59.0706 891.378 59.292C893.983 59.5285 895.829 59.1636 897.182 58.4962C898.521 57.836 899.579 56.7799 900.45 55.2758C902.28 52.1126 903.079 47.3631 903.726 41.4681C903.844 40.3882 903.957 39.2748 904.073 38.1379L904.076 38.1047C904.567 33.2683 905.101 28.0103 906.267 23.1098C907.72 17.0038 910.231 11.0574 915.197 6.75025C917.971 4.34417 920.523 2.63858 922.889 1.6896C925.282 0.73006 927.636 0.489306 929.817 1.2692C931.984 2.0438 933.572 3.6799 934.74 5.65349C935.899 7.61449 936.74 10.0654 937.376 12.799C938.646 18.2643 939.214 25.4072 939.51 33.3483C939.724 39.0869 939.797 45.3515 939.873 51.8153V51.8203C939.903 54.3203 939.932 56.8501 939.971 59.3907C940.248 77.7579 940.981 96.7209 945.083 110.741C947.131 117.738 949.944 123.231 953.721 126.809C957.401 130.295 962.164 132.127 968.607 131.534C974.815 130.962 979.463 128.352 983.043 124.244C986.681 120.069 989.293 114.253 991.127 107.22C994.805 93.1176 995.16 74.9593 995.177 57.5741C995.179 55.7614 995.177 53.9568 995.175 52.1675C995.169 45.4395 995.162 38.9265 995.348 33.0035C995.583 25.5283 996.127 18.7863 997.431 13.5725C998.695 8.52169 1000.89 4.01209 1005.15 2.40203C1009.42 0.787974 1014.48 2.5689 1020.16 6.60042C1026.75 11.2817 1029.97 18.3394 1031.67 25.8195C1033.15 32.2946 1033.56 39.3896 1033.94 45.9212V45.9233L1033.94 45.9431L1033.94 45.9702C1033.99 46.9186 1034.05 47.8549 1034.1 48.7757C1034.56 56.2712 1035.19 62.5563 1037.27 66.8548C1038.27 68.9203 1039.55 70.3966 1041.22 71.336C1042.9 72.2807 1045.21 72.8159 1048.49 72.5742C1051.68 72.3393 1053.95 71.5239 1055.6 70.3819C1057.24 69.2459 1058.43 67.6709 1059.31 65.635C1061.13 61.4148 1061.46 55.5624 1061.47 48.5737C1061.48 47.3359 1061.47 46.0665 1061.46 44.7743C1061.43 38.9836 1061.4 32.7359 1062.2 26.8345C1063.19 19.5648 1065.47 12.4401 1070.85 6.8981C1073.48 4.18235 1075.87 2.22599 1078.06 1.11156C1080.25 -0.00982388 1082.6 -0.443784 1084.77 0.572749C1086.85 1.54489 1088.09 3.54079 1088.87 5.64209C1089.67 7.79001 1090.15 10.4819 1090.44 13.507C1091.33 22.904 1090.45 37.1633 1089.48 52.7845L1089.48 52.8144L1089.48 52.8601C1089.21 57.1362 1088.94 61.5139 1088.7 65.9215C1087.55 86.7025 1087.02 108.322 1090.39 124.445C1092.08 132.508 1094.68 138.9 1098.42 143.123C1102.05 147.221 1106.88 149.43 1113.56 148.967C1120.14 148.51 1124.69 145.729 1127.89 141.272C1131.18 136.699 1133.16 130.205 1134.1 122.248C1135.98 106.323 1133.59 85.6508 1130.77 65.8378C1130.29 62.4307 1129.79 59.0453 1129.3 55.7195L1129.27 55.5403L1129.26 55.4369V55.4357L1129.26 55.4334C1128.35 49.2631 1127.47 43.3022 1126.76 37.7935C1125.66 29.2427 1124.94 21.5651 1125.15 15.6214C1125.26 12.6532 1125.6 9.97354 1126.33 7.77717C1127.04 5.59358 1128.23 3.59102 1130.24 2.45019C1132.3 1.28182 1134.68 1.31542 1137.11 2.08351C1139.5 2.8428 1142.19 4.38689 1145.2 6.63755C1151.7 11.5063 1155.03 18.6304 1156.95 26.1462C1158.55 32.4508 1159.22 39.3042 1159.84 45.638L1159.84 45.6469V45.6487C1159.89 46.2153 1159.95 46.7777 1160 47.3353C1160.06 47.9256 1160.12 48.5103 1160.18 49.0887C1160.95 56.5343 1161.87 62.7512 1164.19 66.9782C1165.31 69.0134 1166.7 70.4832 1168.48 71.4134C1170.27 72.3491 1172.69 72.851 1176.03 72.5759C1179.18 72.3162 1181.34 71.3984 1182.87 70.1291C1184.41 68.8504 1185.52 67.0481 1186.29 64.6831C1187.88 59.8083 1187.85 53.2144 1187.69 45.7225C1187.68 45.3194 1187.67 44.9139 1187.66 44.5065C1187.51 37.5654 1187.34 30.0458 1188.71 23.46C1190.18 16.375 1193.51 9.97951 1200.81 6.39485C1205.7 3.99666 1210.05 3.36351 1213.49 5.47479C1216.79 7.50348 1218.28 11.5154 1219 15.8124C1219.73 20.2377 1219.77 25.7324 1219.51 31.6862C1219.28 36.7255 1218.84 42.222 1218.39 47.8258L1218.39 47.8313L1218.39 47.8365C1218.33 48.5412 1218.28 49.2476 1218.22 49.955L1218.14 50.9519C1217.07 64.4397 1216.19 78.1218 1218.07 88.4881C1219 93.6546 1220.57 97.7193 1222.91 100.493C1225.17 103.169 1228.28 104.819 1232.81 104.953C1237.5 105.092 1240.61 103.785 1242.78 101.654C1245.02 99.4497 1246.54 96.0865 1247.45 91.6105C1249.27 82.5809 1248.37 70.2999 1247.4 57.552L1247.37 57.1532C1246.43 44.7925 1245.46 31.9947 1247.42 22.4582C1248.42 17.5982 1250.24 13.2451 1253.51 10.2205C1256.86 7.12462 1261.4 5.72454 1267.16 6.1455C1272.28 6.52019 1276.37 8.26995 1279.58 11.1312C1282.74 13.9589 1284.89 17.7365 1286.41 21.9435C1289.36 30.1573 1290.11 40.6815 1290.81 50.6352L1290.84 51.0195C1291.57 61.327 1292.29 70.962 1294.99 77.9788C1296.32 81.4304 1298.06 84.0424 1300.33 85.7693C1302.57 87.4674 1305.55 88.4775 1309.7 88.3456C1313.86 88.2136 1316.86 87.1539 1319.1 85.5268C1321.35 83.8912 1323.03 81.5401 1324.3 78.5043C1326.88 72.2965 1327.52 63.819 1328.07 54.3723C1328.1 53.8521 1328.13 53.3294 1328.16 52.8044C1328.66 44.0123 1329.21 34.5976 1331.58 26.4814C1334.12 17.769 1338.88 10.1889 1348.21 6.32891C1354.88 3.56679 1360.5 3.42164 1365 6.10517C1369.37 8.71393 1372.02 13.6237 1373.73 19.3976C1377 30.464 1377.34 46.6989 1377.68 63.0228V63.0242L1377.69 63.7081L1377.72 65.0687C1378.09 82.3419 1378.59 99.6014 1382.27 112.16C1384.1 118.416 1386.63 123.205 1390.07 126.249C1393.41 129.208 1397.84 130.728 1404 130.018C1410.13 129.31 1414.65 127.439 1418.01 124.778C1421.37 122.116 1423.74 118.536 1425.36 114.148C1428.66 105.243 1428.78 93.375 1428.07 80.2267C1427.88 76.5758 1427.62 72.8268 1427.35 69.0409L1427.35 69.0187C1426.69 59.4022 1426.01 49.5485 1426.31 40.4592C1426.71 28.1555 1428.91 16.5555 1435.86 8.24603L1435.75 8.1343C1438.16 5.78386 1440.46 4.11364 1442.68 3.27155C1444.99 2.39568 1447.28 2.40273 1449.35 3.52472C1451.3 4.58409 1452.7 6.45366 1453.75 8.5784C1454.82 10.7287 1455.66 13.3906 1456.33 16.3868C1458.49 25.8763 1459.35 40.0495 1460.3 55.4589L1460.3 55.5421C1460.54 59.3519 1460.77 63.2369 1461.04 67.1449C1462.38 87.1171 1464.39 107.882 1469.59 123.62C1472.19 131.48 1475.53 137.877 1479.8 142.281C1484 146.615 1489.16 149.078 1495.71 149.078C1504.19 149.078 1510.41 146.432 1515.07 142.004C1519.79 137.517 1523.1 131.019 1525.3 123.026C1529.72 106.983 1529.49 85.7959 1528.37 65.4476C1528.09 60.3825 1527.75 55.3916 1527.43 50.5626L1527.36 49.5004C1527.05 45.0536 1526.76 40.7477 1526.53 36.677C1526.03 27.9252 1525.8 20.0967 1526.37 14.1197C1526.65 11.1357 1527.15 8.46171 1528 6.30979C1528.84 4.17399 1530.15 2.22877 1532.27 1.24885C1534.43 0.248614 1536.82 0.530429 1539.18 1.52819C1541.53 2.51935 1544.13 4.32666 1547.02 6.88192C1554.09 13.1174 1556.8 21.9785 1557.66 31.2245C1558.42 39.3783 1557.77 48.1976 1557.17 56.2988C1557.09 57.3562 1557.02 58.4013 1556.94 59.4311C1556.29 68.5909 1556.01 76.2971 1557.77 81.562C1558.61 84.0889 1559.87 85.8516 1561.63 86.967C1563.43 88.0968 1566.05 88.7602 1570.01 88.4683C1573.52 88.2093 1575.82 86.7849 1577.44 84.5607C1579.13 82.2204 1580.18 78.8082 1580.66 74.4393C1581.61 65.6828 1580.14 54.2372 1578.45 43.0122C1578.25 41.6539 1578.04 40.2988 1577.84 38.9545L1577.82 38.8698L1577.82 38.8544C1577.19 34.7461 1576.58 30.7406 1576.12 27.0574C1575.5 22.1575 1575.12 17.6383 1575.34 14.0269C1575.45 12.2193 1575.72 10.513 1576.25 9.04822C1576.79 7.57805 1577.66 6.17873 1579.08 5.26868C1582.01 3.39369 1585.71 4.45141 1589.42 6.58989C1595.16 9.89896 1597.7 15.2944 1598.77 21.0653C1599.75 26.3399 1599.56 32.2513 1599.4 37.6406V37.6434C1599.38 38.0506 1599.37 38.4548 1599.36 38.8555C1599.18 44.7783 1599.14 49.8298 1600.36 53.5315C1600.94 55.3078 1601.78 56.6251 1602.91 57.5567C1604.03 58.4825 1605.65 59.1878 1608.09 59.4092C1610.69 59.6457 1612.54 59.2808 1613.89 58.6134C1615.23 57.9532 1616.29 56.8971 1617.16 55.393C1618.99 52.2298 1619.79 47.4804 1620.44 41.5853C1620.55 40.5124 1620.67 39.4064 1620.78 38.2772L1620.79 38.222C1621.28 33.3855 1621.81 28.1275 1622.98 23.2271C1624.43 17.121 1626.94 11.1747 1631.91 6.86751C1634.68 4.46144 1637.23 2.75584 1639.6 1.80686C1641.99 0.847323 1644.35 0.60657 1646.53 1.38646C1648.7 2.16107 1650.28 3.79716 1651.45 5.77075C1652.61 7.73175 1653.45 10.1827 1654.09 12.9163C1655.36 18.3816 1655.93 25.5244 1656.22 33.4655C1656.43 39.2056 1656.51 45.472 1656.58 51.9376C1656.61 54.4376 1656.64 56.9673 1656.68 59.5079C1656.96 77.8751 1657.69 96.8381 1661.79 110.858C1663.84 117.855 1666.66 123.348 1670.43 126.926C1674.11 130.412 1678.87 132.244 1685.32 131.651C1691.53 131.079 1696.17 128.469 1699.75 124.361C1703.39 120.186 1706 114.37 1707.84 107.337C1711.52 93.2348 1711.87 75.0765 1711.89 57.6913C1711.89 55.8795 1711.89 54.0759 1711.89 52.2874V52.2777C1711.88 45.5522 1711.87 39.0417 1712.06 33.1207C1712.29 25.6455 1712.84 18.9036 1714.14 13.6898C1715.41 8.63896 1717.6 4.12935 1721.86 2.5193C1726.13 0.905238 1731.19 2.68617 1736.87 6.71768C1743.46 11.3989 1746.68 18.4566 1748.38 25.9367C1749.86 32.4125 1750.27 39.5082 1750.65 46.0402L1750.65 46.1516C1750.71 47.078 1750.76 47.9929 1750.82 48.893C1751.28 56.3884 1751.9 62.6736 1753.98 66.972C1754.98 69.0375 1756.26 70.5139 1757.93 71.4532C1759.61 72.398 1761.92 72.9331 1765.2 72.6915C1768.39 72.4565 1770.66 71.6411 1772.31 70.4991C1773.95 69.3631 1775.15 67.7881 1776.02 65.7523C1777.85 61.532 1778.17 55.6796 1778.18 48.6909C1778.19 47.4532 1778.18 46.1837 1778.17 44.8915C1778.14 39.1008 1778.11 32.8531 1778.91 26.9518C1779.9 19.6821 1782.18 12.5574 1787.56 7.01537C1790.21 4.28685 1792.65 2.31648 1794.93 1.17497C1797.23 0.0203656 1799.6 -0.391416 1801.83 0.433658C1804.02 1.24033 1805.54 3.03366 1806.61 5.09522C1807.7 7.16722 1808.48 9.7834 1809.08 12.7281C1810.27 18.6243 1810.82 26.4048 1811.12 35.125C1811.32 40.726 1811.42 46.8056 1811.52 53.1022L1811.52 53.1195L1811.52 53.1957C1811.58 56.6824 1811.64 60.2351 1811.71 63.8096C1812.15 84.0855 1813.17 105.194 1817.69 120.944C1819.96 128.813 1823.02 135.085 1827.11 139.244C1831.1 143.307 1836.17 145.473 1842.88 145.007L1843.22 149.995C1835.05 150.563 1828.55 147.849 1823.54 142.748C1818.63 137.743 1815.26 130.565 1812.89 122.325C1808.16 105.858 1807.15 84.1149 1806.71 63.9166C1806.64 60.2563 1806.58 56.6506 1806.52 53.1292V53.1261C1806.42 46.8615 1806.32 40.8637 1806.12 35.2995C1805.82 26.5979 1805.29 19.1777 1804.18 13.7206C1803.63 10.9887 1802.96 8.89017 1802.18 7.41263C1801.41 5.92466 1800.67 5.33365 1800.1 5.12451C1799.58 4.93379 1798.7 4.87472 1797.17 5.64468C1795.6 6.42774 1793.62 7.95377 1791.15 10.4968C1786.82 14.9633 1784.78 20.8866 1783.87 27.6239C1783.12 33.1433 1783.15 38.9541 1783.17 44.7286C1783.18 46.0566 1783.19 47.3828 1783.18 48.703C1783.17 55.5593 1782.9 62.4309 1780.61 67.7334C1779.44 70.4588 1777.7 72.8448 1775.15 74.6095C1772.61 76.3681 1769.44 77.3931 1765.57 77.678C1761.57 77.9719 1758.22 77.3556 1755.48 75.8098C1752.72 74.2587 1750.82 71.9055 1749.48 69.1504C1746.9 63.8078 1746.27 56.4881 1745.82 49.1993C1745.77 48.2329 1745.71 47.263 1745.65 46.2918C1745.27 39.7179 1744.89 33.0844 1743.51 27.0496C1741.94 20.1715 1739.16 14.4763 1733.97 10.7945C1728.52 6.92109 1725.38 6.5335 1723.63 7.19649C1721.86 7.86349 1720.2 10.0765 1718.99 14.9031C1717.83 19.5667 1717.29 25.8569 1717.06 33.2777C1716.87 39.106 1716.88 45.5044 1716.89 52.2135V52.2331C1716.89 53.3056 1716.89 54.3861 1716.89 55.4735C1716.89 56.2114 1716.89 56.9524 1716.89 57.6963C1716.87 74.9773 1716.54 93.7775 1712.68 108.599C1710.74 116.029 1707.86 122.666 1703.52 127.646C1699.13 132.692 1693.31 135.937 1685.78 136.63C1677.98 137.347 1671.78 135.088 1666.99 130.556C1662.31 126.115 1659.16 119.664 1657 112.262C1652.67 97.4855 1651.96 77.8405 1651.68 59.5833C1651.64 57.0004 1651.61 54.4455 1651.58 51.9319C1651.51 45.492 1651.44 39.3239 1651.22 33.6515C1650.93 25.7467 1650.37 19.0141 1649.22 14.0486C1648.64 11.5668 1647.94 9.66352 1647.15 8.31579C1646.36 6.98065 1645.57 6.3535 1644.85 6.09465C1644.14 5.84109 1643.08 5.79666 1641.46 6.44754C1639.81 7.10898 1637.74 8.42788 1635.18 10.6447C1631.34 13.9768 1629.18 18.7599 1627.84 24.3843C1626.76 28.9291 1626.27 33.7656 1625.78 38.5775L1625.77 38.6559C1625.65 39.8172 1625.53 40.977 1625.41 42.1308C1624.78 47.8787 1623.93 53.6838 1621.49 57.8973C1620.22 60.0816 1618.49 61.9195 1616.11 63.0976C1613.73 64.2685 1610.91 64.6863 1607.64 64.3888C1604.42 64.0963 1601.78 63.1076 1599.73 61.418C1597.68 59.7342 1596.41 57.515 1595.61 55.0926C1594.07 50.3971 1594.19 44.4031 1594.36 38.7047L1594.39 37.6299V37.6286C1594.56 32.0891 1594.73 26.6982 1593.85 21.9785C1592.94 17.0504 1590.96 13.2444 1586.92 10.9223C1583.36 8.87092 1582.1 9.27735 1581.78 9.48021C1581.58 9.60909 1581.25 9.93096 1580.95 10.7631C1580.65 11.6007 1580.43 12.7778 1580.33 14.3335C1580.14 17.4488 1580.46 21.5759 1581.08 26.4326C1581.53 30.0485 1582.13 33.9639 1582.76 38.0584L1583.02 39.7938C1583.15 40.6127 1583.27 41.4379 1583.4 42.2686C1585.07 53.3788 1586.67 65.4712 1585.63 74.9804C1585.11 79.7443 1583.91 84.1467 1581.49 87.4934C1578.98 90.9564 1575.3 93.0914 1570.38 93.4548C1565.74 93.7973 1561.94 93.0713 1558.97 91.1959C1555.97 89.3061 1554.13 86.4477 1553.02 83.146C1550.89 76.7535 1551.33 67.9717 1551.96 59.0774C1552.03 58.0311 1552.11 56.9793 1552.19 55.924C1552.79 47.7664 1553.4 39.3953 1552.68 31.6892C1551.87 23.0142 1549.4 15.6532 1543.71 10.6303C1541 8.23309 1538.87 6.8228 1537.24 6.13369C1535.62 5.4512 1534.79 5.59009 1534.37 5.78677C1533.9 6.00375 1533.26 6.59527 1532.65 8.13853C1532.05 9.66567 1531.61 11.8131 1531.35 14.5953C1530.82 20.1506 1531.02 27.6337 1531.52 36.3926C1531.75 40.4288 1532.04 44.7012 1532.34 49.1472L1532.34 49.168L1532.42 50.225C1532.74 55.0534 1533.08 60.0722 1533.36 65.1716C1534.48 85.4812 1534.78 107.429 1530.12 124.355C1527.78 132.846 1524.13 140.292 1518.52 145.628C1512.84 151.022 1505.34 154.078 1495.71 154.078C1487.71 154.078 1481.29 150.994 1476.21 145.762C1471.2 140.6 1467.57 133.41 1464.85 125.19C1459.42 108.769 1457.39 87.4017 1456.05 67.4811C1455.78 63.4228 1455.53 59.4315 1455.29 55.552L1455.29 55.5023C1454.35 40.145 1453.51 26.5451 1451.46 17.4924C1450.82 14.6884 1450.1 12.4533 1449.28 10.8008C1448.44 9.12273 1447.63 8.28356 1446.96 7.91911C1446.4 7.61728 1445.67 7.48543 1444.45 7.94641C1443.34 8.36601 1441.94 9.25141 1440.21 10.8092L1440.23 10.8327C1434 17.8237 1431.71 28.2345 1431.3 40.6244C1431.01 49.4399 1431.67 58.8827 1432.32 68.3936V68.3959L1432.32 68.4019C1432.59 72.2556 1432.86 76.1205 1433.06 79.9593C1433.77 93.0583 1433.75 105.895 1430.05 115.883C1428.18 120.94 1425.34 125.353 1421.11 128.698C1416.89 132.044 1411.44 134.192 1404.57 134.985C1397.18 135.837 1391.29 134.009 1386.76 129.992C1382.32 126.062 1379.42 120.25 1377.47 113.564C1373.57 100.238 1373.09 82.2457 1372.72 65.1752L1372.69 63.6293C1372.34 46.8702 1372.01 31.2188 1368.93 20.8141C1367.35 15.4616 1365.19 12.0408 1362.44 10.3991C1359.81 8.83217 1355.99 8.5167 1350.12 10.9488C1342.66 14.0362 1338.66 20.0608 1336.38 27.8836C1334.17 35.4321 1333.66 44.3134 1333.14 53.287L1333.11 53.8512L1333.06 54.6636C1332.52 63.8867 1331.89 73.2829 1328.91 80.4261C1327.4 84.0658 1325.22 87.2595 1322.04 89.5723C1318.84 91.8935 1314.82 93.1855 1309.86 93.343C1304.75 93.5052 1300.6 92.2515 1297.31 89.752C1294.05 87.2815 1291.86 83.7624 1290.33 79.7736C1287.32 71.95 1286.58 61.5342 1285.87 51.5285V51.5273L1285.86 51.5243L1285.85 51.3739C1285.12 41.0801 1284.41 31.1671 1281.7 23.6359C1280.36 19.9175 1278.6 16.9576 1276.25 14.8603C1273.94 12.7965 1270.92 11.4335 1266.8 11.1322C1262.09 10.7879 1259.02 11.9406 1256.91 13.8931C1254.72 15.9169 1253.21 19.1078 1252.32 23.465C1250.51 32.2602 1251.42 44.4166 1252.39 57.1738L1252.4 57.3585C1253.34 69.7956 1254.33 82.7891 1252.35 92.6002C1251.34 97.5689 1249.53 102.034 1246.29 105.219C1242.97 108.478 1238.45 110.122 1232.66 109.95C1226.8 109.777 1222.32 107.539 1219.09 103.718C1215.95 99.9953 1214.15 94.9541 1213.15 89.3764C1211.14 78.2545 1212.1 63.8955 1213.16 50.5573C1213.2 50.0814 1213.23 49.6067 1213.27 49.1333L1213.38 47.7278L1213.41 47.4137C1213.86 41.8033 1214.29 36.41 1214.51 31.4664C1214.77 25.5857 1214.71 20.5208 1214.07 16.6321C1213.4 12.6151 1212.21 10.5589 1210.87 9.73609C1209.67 8.9959 1207.4 8.72802 1203.02 10.8828C1197.57 13.556 1194.88 18.3002 1193.6 24.4777C1192.35 30.4829 1192.51 37.469 1192.67 44.5971V44.5989C1192.67 44.9367 1192.68 45.2748 1192.69 45.6132C1192.85 52.871 1192.95 60.3912 1191.04 66.2358C1190.07 69.2306 1188.52 71.9393 1186.06 73.9783C1183.59 76.0266 1180.4 77.2329 1176.44 77.5591C1172.4 77.8913 1169 77.3211 1166.17 75.8472C1163.33 74.3677 1161.29 72.0904 1159.81 69.3828C1156.92 64.124 1155.95 56.8723 1155.2 49.6006C1155.14 48.9467 1155.07 48.2908 1155.01 47.6337C1154.96 47.1085 1154.9 46.5825 1154.85 46.0561L1154.85 46.0425C1154.23 39.6955 1153.6 33.284 1152.1 27.38C1150.33 20.4157 1147.42 14.5455 1142.2 10.6401C1139.4 8.54353 1137.23 7.36784 1135.6 6.85036C1133.99 6.34169 1133.16 6.54152 1132.71 6.79793C1132.21 7.08187 1131.59 7.76263 1131.08 9.33643C1130.56 10.8974 1130.25 13.0493 1130.15 15.8021C1129.95 21.3004 1130.62 28.6233 1131.72 37.1556C1132.42 42.6249 1133.29 48.5022 1134.19 54.6381C1134.7 58.0643 1135.22 61.5712 1135.72 65.1327C1138.53 84.8649 1141.03 106.165 1139.06 122.834C1138.08 131.174 1135.95 138.632 1131.95 144.191C1127.88 149.866 1121.96 153.396 1113.91 153.955C1105.71 154.523 1099.36 151.726 1094.68 146.437C1090.11 141.273 1087.26 133.897 1085.5 125.468C1081.98 108.611 1082.56 86.359 1083.71 65.6466C1083.96 61.0468 1084.24 56.5304 1084.51 52.1608V52.1598V52.1587C1085.47 36.6239 1086.32 22.9462 1085.46 13.9811C1085.19 11.1385 1084.76 8.94049 1084.18 7.38362C1083.59 5.78013 1082.98 5.25634 1082.65 5.10121C1082.42 4.99047 1081.79 4.82165 1080.33 5.56512Z" fill="#1C1C1C"/>
</g>
<defs>
<filter id="filter0_d_84_42" x="0" y="0" width="1847.23" height="194.07" filterUnits="userSpaceOnUse" color-interpolation-filters="sRGB">
<feFlood flood-opacity="0" result="BackgroundImageFix"/>
<feColorMatrix in="SourceAlpha" type="matrix" values="0 0 0 0 0 0 0 0 0 0 0 0 0 0 0 0 0 0 127 0" result="hardAlpha"/>
<feOffset dy="4"/>
<feGaussianBlur stdDeviation="2"/>
<feComposite in2="hardAlpha" operator="out"/>
<feColorMatrix type="matrix" values="0 0 0 0 0 0 0 0 0 0 0 0 0 0 0 0 0 0 0.25 0"/>
<feBlend mode="normal" in2="BackgroundImageFix" result="effect1_dropShadow_84_42"/>
<feBlend mode="normal" in="SourceGraphic" in2="effect1_dropShadow_84_42" result="shape"/>
</filter>
</defs>
</svg>
