<svg width="40" height="40" viewBox="0 0 40 40" fill="none" xmlns="http://www.w3.org/2000/svg">
<path d="M32.6679 13.25H7.33594C7.20333 13.25 7.07615 13.1973 6.98238 13.1036C6.88862 13.0098 6.83594 12.8826 6.83594 12.75C6.83594 12.6174 6.88862 12.4902 6.98238 12.3964C7.07615 12.3027 7.20333 12.25 7.33594 12.25H32.6679C32.8005 12.25 32.9277 12.3027 33.0215 12.3964C33.1153 12.4902 33.1679 12.6174 33.1679 12.75C33.1679 12.8826 33.1153 13.0098 33.0215 13.1036C32.9277 13.1973 32.8005 13.25 32.6679 13.25ZM32.6679 20.5H7.33594C7.20333 20.5 7.07615 20.4473 6.98238 20.3536C6.88862 20.2598 6.83594 20.1326 6.83594 20C6.83594 19.8674 6.88862 19.7402 6.98238 19.6464C7.07615 19.5527 7.20333 19.5 7.33594 19.5H32.6679C32.8005 19.5 32.9277 19.5527 33.0215 19.6464C33.1153 19.7402 33.1679 19.8674 33.1679 20C33.1679 20.1326 33.1153 20.2598 33.0215 20.3536C32.9277 20.4473 32.8005 20.5 32.6679 20.5ZM32.6679 27.75H7.33594C7.20333 27.75 7.07615 27.6973 6.98238 27.6036C6.88862 27.5098 6.83594 27.3826 6.83594 27.25C6.83594 27.1174 6.88862 26.9902 6.98238 26.8964C7.07615 26.8027 7.20333 26.75 7.33594 26.75H32.6679C32.8005 26.75 32.9277 26.8027 33.0215 26.8964C33.1153 26.9902 33.1679 27.1174 33.1679 27.25C33.1679 27.3826 33.1153 27.5098 33.0215 27.6036C32.9277 27.6973 32.8005 27.75 32.6679 27.75Z" fill="black"/>
</svg>
