<svg width="51" height="51" viewBox="0 0 51 51" fill="none" xmlns="http://www.w3.org/2000/svg">
<path d="M36.4494 32.0755H34.1458L33.3293 31.2882C36.2857 27.8591 37.9106 23.4813 37.9074 18.9537C37.9074 15.205 36.7958 11.5405 34.7131 8.42359C32.6304 5.30667 29.6703 2.87733 26.207 1.44277C22.7436 0.00821234 18.9327 -0.367134 15.256 0.364198C11.5794 1.09553 8.20213 2.90069 5.55141 5.55141C2.90069 8.20213 1.09553 11.5794 0.364198 15.256C-0.367134 18.9327 0.00821234 22.7436 1.44277 26.207C2.87733 29.6703 5.30667 32.6304 8.42359 34.7131C11.5405 36.7958 15.205 37.9074 18.9537 37.9074C23.6484 37.9074 27.964 36.187 31.2882 33.3293L32.0755 34.1458V36.4494L46.6552 51L51 46.6552L36.4494 32.0755ZM18.9537 32.0755C11.693 32.0755 5.83191 26.2144 5.83191 18.9537C5.83191 11.693 11.693 5.83191 18.9537 5.83191C26.2144 5.83191 32.0755 11.693 32.0755 18.9537C32.0755 26.2144 26.2144 32.0755 18.9537 32.0755Z" fill="#F5F1E0"/>
</svg>
