<svg width="133" height="133" viewBox="0 0 133 133" fill="none" xmlns="http://www.w3.org/2000/svg">
<path d="M66.5 133C29.7294 133 0 103.271 0 66.5C0 29.7294 29.7294 0 66.5 0C103.271 0 133 29.7294 133 66.5C133 103.271 102.879 133 66.5 133ZM66.5 7.82353C34.0324 7.82353 7.82353 34.0324 7.82353 66.5C7.82353 98.9676 34.0324 125.176 66.5 125.176C98.9676 125.176 125.176 98.9676 125.176 66.5C125.176 34.0324 98.5765 7.82353 66.5 7.82353Z" fill="#FAFAFB"/>
<path d="M28.1584 114.616L21.1172 111.487C23.0731 106.793 29.3319 104.054 35.9819 100.925C42.6319 97.7955 50.8466 94.2749 50.8466 89.972V84.1043C48.4995 82.1484 44.5878 77.8455 43.8054 71.5867C41.8495 69.6308 38.7201 66.1102 38.7201 61.4161C38.7201 58.6779 39.8937 56.3308 40.676 54.7661C39.8937 51.6367 39.1113 45.769 39.1113 41.0749C39.1113 25.819 49.6731 15.6484 66.4937 15.6484C71.1878 15.6484 77.0554 16.822 80.1848 20.3426C87.6172 21.9073 93.876 30.5131 93.876 41.0749C93.876 47.7249 92.7025 53.2014 91.9201 55.9396C92.7025 57.1131 93.4848 59.069 93.4848 61.4161C93.4848 66.5014 90.7466 70.022 88.3995 71.5867C87.6172 77.8455 84.0966 81.7573 81.7495 83.7131V89.972C81.7495 93.4926 88.7907 96.2308 95.0495 98.5779C102.482 101.316 110.305 104.445 113.044 110.704L105.611 113.443C104.438 110.313 98.179 107.966 92.3113 106.01C83.7054 102.881 73.926 99.3602 73.926 90.3631V80.1926L75.8819 79.019C75.8819 79.019 80.576 75.8896 80.576 69.6308V66.8926L82.9231 65.719C83.3142 65.719 85.2701 64.5455 85.2701 61.4161C85.2701 60.6337 84.4878 59.4602 84.0966 59.069L82.5319 57.5043L83.3142 55.5484C83.3142 55.5484 85.2701 49.2896 85.2701 41.4661C85.2701 34.0337 80.9672 28.5573 77.4466 28.5573H75.0995L73.926 26.6014C73.926 25.0367 71.1878 23.472 66.4937 23.472C54.3672 23.472 46.9348 30.122 46.9348 41.0749C46.9348 46.1602 48.8907 54.7661 48.8907 54.7661L49.2819 56.722L47.7172 58.6778C47.326 58.6778 46.5437 59.8514 46.5437 61.4161C46.5437 63.372 48.8907 65.719 50.0642 66.5014L51.6289 67.6749V69.6308C51.6289 75.4984 56.7142 78.6279 56.7142 79.019L58.6701 80.1926V90.3631C58.6701 99.7514 48.4995 104.445 39.1113 108.357C34.8084 109.922 28.9407 112.66 28.1584 114.616Z" fill="#FAFAFB"/>
</svg>
