<svg width="316" height="316" viewBox="0 0 316 316" fill="none" xmlns="http://www.w3.org/2000/svg">
<circle cx="158" cy="158" r="158" fill="#F5F1E0"/>
<path d="M158.5 143.333C158.5 138.611 161.872 133.889 168.62 133.889C172.198 133.889 175.629 132.467 178.16 129.937C180.69 127.407 182.111 123.976 182.111 120.398V117.361M139.611 143.333V140.972C139.611 137.215 141.104 133.612 143.76 130.955C146.417 128.298 150.021 126.806 153.778 126.806C156.283 126.806 158.685 125.811 160.456 124.039C162.227 122.268 163.222 119.866 163.222 117.361V115M182.111 155.611V171.667C182.111 179.181 179.126 186.388 173.812 191.701C168.499 197.015 161.292 200 153.778 200H144.333C136.819 200 129.612 197.015 124.299 191.701C118.985 186.388 116 179.181 116 171.667V155.611C116 154.86 116.299 154.139 116.83 153.608C117.361 153.076 118.082 152.778 118.833 152.778H179.278C180.029 152.778 180.75 153.076 181.281 153.608C181.813 154.139 182.111 154.86 182.111 155.611Z" stroke="#66492A" stroke-width="5" stroke-linecap="round" stroke-linejoin="round"/>
<path d="M177.389 152.778H189.194C192.325 152.778 195.328 154.022 197.542 156.236C199.756 158.45 201 161.452 201 164.583C201 167.714 199.756 170.717 197.542 172.931C195.328 175.145 192.325 176.389 189.194 176.389H182.111" stroke="#66492A" stroke-width="5" stroke-linecap="round" stroke-linejoin="round"/>
</svg>
