<svg width="157" height="87" viewBox="0 0 157 87" fill="none" xmlns="http://www.w3.org/2000/svg">
<path d="M27 37.5C29.6667 37.5 31.8833 38.6167 33.65 40.85C35.45 43.05 36.35 46.4 36.35 50.9C36.35 54.0667 35.8333 56.6667 34.8 58.7C33.7667 60.7333 32.3833 62.25 30.65 63.25C28.95 64.2167 27.1 64.7 25.1 64.7C23.5333 64.7 22.0333 64.3167 20.6 63.55C19.1667 62.75 18.0667 61.55 17.3 59.95L18.2 60.2C18.9333 61.3333 19.85 62.1833 20.95 62.75C22.05 63.3167 23.1667 63.6 24.3 63.6C26.4 63.6 27.9667 62.5833 29 60.55C30.0667 58.5167 30.6 55.3833 30.6 51.15C30.6 48.3833 30.3833 46.1167 29.95 44.35C29.55 42.5833 28.9333 41.3 28.1 40.5C27.3 39.6667 26.2833 39.25 25.05 39.25C23.6167 39.25 22.3 39.8667 21.1 41.1C19.9 42.3333 19.1833 44.1167 18.95 46.45L18.45 45.4C18.9167 42.9 19.9167 40.9667 21.45 39.6C23.0167 38.2 24.8667 37.5 27 37.5ZM19.25 24.85V61.95C18.6833 62.15 18.1 62.4 17.5 62.7C16.9 63 16.3333 63.3333 15.8 63.7C15.2667 64.0333 14.7667 64.4 14.3 64.8L13.5 64.4C13.6333 63.9333 13.7167 63.4667 13.75 63C13.8167 62.5333 13.85 62.05 13.85 61.55V30.85C13.85 29.35 13.5833 28.25 13.05 27.55C12.55 26.8167 11.6167 26.45 10.25 26.45V25.4C11.3167 25.5 12.35 25.55 13.35 25.55C14.45 25.55 15.5 25.5 16.5 25.4C17.5 25.2667 18.4167 25.0833 19.25 24.85ZM55.8145 37.5C58.7478 37.5 61.0478 38.3833 62.7145 40.15C64.3811 41.9167 65.2145 44.7167 65.2145 48.55H47.9645L47.8645 47.6H59.9145C59.9478 45.9667 59.8145 44.4667 59.5145 43.1C59.2145 41.7 58.7478 40.5833 58.1145 39.75C57.4811 38.9167 56.6478 38.5 55.6145 38.5C54.1811 38.5 52.9311 39.2667 51.8645 40.8C50.8311 42.3 50.1978 44.7167 49.9645 48.05L50.1145 48.3C50.0811 48.7667 50.0478 49.2833 50.0145 49.85C49.9811 50.3833 49.9645 50.9167 49.9645 51.45C49.9645 53.75 50.3145 55.6833 51.0145 57.25C51.7145 58.8167 52.6311 60 53.7645 60.8C54.8978 61.5667 56.0478 61.95 57.2145 61.95C58.1145 61.95 58.9811 61.8167 59.8145 61.55C60.6811 61.25 61.4978 60.7667 62.2645 60.1C63.0311 59.4 63.7145 58.45 64.3145 57.25L65.3145 57.65C64.9145 58.7833 64.2978 59.9 63.4645 61C62.6311 62.1 61.5645 63 60.2645 63.7C58.9645 64.3667 57.4478 64.7 55.7145 64.7C53.3811 64.7 51.3478 64.1833 49.6145 63.15C47.8811 62.0833 46.5478 60.5667 45.6145 58.6C44.6811 56.6333 44.2145 54.3 44.2145 51.6C44.2145 48.6333 44.6978 46.1 45.6645 44C46.6311 41.9 47.9811 40.3 49.7145 39.2C51.4811 38.0667 53.5145 37.5 55.8145 37.5ZM79.2086 64.35C77.8086 64.35 76.6086 64.0833 75.6086 63.55C74.6086 63.0167 73.8586 62.2833 73.3586 61.35C72.8586 60.4167 72.6086 59.35 72.6086 58.15C72.6086 56.6833 72.9419 55.5 73.6086 54.6C74.2753 53.6667 75.1253 52.9167 76.1586 52.35C77.2253 51.7833 78.3419 51.3167 79.5086 50.95C80.7086 50.55 81.8253 50.1833 82.8586 49.85C83.9253 49.4833 84.7919 49.0667 85.4586 48.6C86.1586 48.1333 86.5086 47.5167 86.5086 46.75V43.35C86.5086 42.15 86.3086 41.2 85.9086 40.5C85.5419 39.7667 85.0253 39.25 84.3586 38.95C83.7253 38.65 82.9586 38.5 82.0586 38.5C81.2919 38.5 80.4753 38.6167 79.6086 38.85C78.7419 39.05 78.0586 39.4667 77.5586 40.1C78.2919 40.3 78.8919 40.7 79.3586 41.3C79.8586 41.8667 80.1086 42.5833 80.1086 43.45C80.1086 44.3833 79.7919 45.1167 79.1586 45.65C78.5586 46.1833 77.7919 46.45 76.8586 46.45C75.8253 46.45 75.0586 46.1333 74.5586 45.5C74.0586 44.8333 73.8086 44.0667 73.8086 43.2C73.8086 42.3 74.0253 41.5667 74.4586 41C74.9253 40.4333 75.5253 39.9 76.2586 39.4C77.0586 38.8667 78.0753 38.4167 79.3086 38.05C80.5753 37.6833 81.9753 37.5 83.5086 37.5C84.9419 37.5 86.1753 37.6667 87.2086 38C88.2753 38.3 89.1586 38.8 89.8586 39.5C90.6919 40.2667 91.2419 41.2333 91.5086 42.4C91.7753 43.5333 91.9086 44.9167 91.9086 46.55V60.35C91.9086 61.1833 92.0086 61.7833 92.2086 62.15C92.4419 62.4833 92.8086 62.65 93.3086 62.65C93.6419 62.65 93.9586 62.5667 94.2586 62.4C94.5919 62.2333 94.9753 61.9833 95.4086 61.65L95.9086 62.5C95.2086 63.0667 94.4919 63.5167 93.7586 63.85C93.0586 64.1833 92.1586 64.35 91.0586 64.35C89.9919 64.35 89.1253 64.1833 88.4586 63.85C87.7919 63.5167 87.2919 63.0333 86.9586 62.4C86.6586 61.7667 86.5086 60.9833 86.5086 60.05C85.6419 61.45 84.6086 62.5167 83.4086 63.25C82.2086 63.9833 80.8086 64.35 79.2086 64.35ZM81.6086 61.95C82.5419 61.95 83.4086 61.6833 84.2086 61.15C85.0419 60.6167 85.8086 59.8167 86.5086 58.75V48.8C86.1419 49.3333 85.6086 49.8 84.9086 50.2C84.2086 50.5667 83.4586 50.95 82.6586 51.35C81.8586 51.75 81.0919 52.2167 80.3586 52.75C79.6586 53.25 79.0753 53.9 78.6086 54.7C78.1419 55.5 77.9086 56.5167 77.9086 57.75C77.9086 59.05 78.2419 60.0833 78.9086 60.85C79.5753 61.5833 80.4753 61.95 81.6086 61.95ZM118.303 37.5C119.636 37.5 120.719 37.6833 121.553 38.05C122.419 38.3833 123.136 38.85 123.703 39.45C124.303 40.0833 124.719 40.9 124.953 41.9C125.219 42.9 125.353 44.25 125.353 45.95V59.35C125.353 60.75 125.619 61.7 126.153 62.2C126.719 62.7 127.653 62.95 128.953 62.95V64C128.386 63.9667 127.503 63.9333 126.303 63.9C125.103 63.8333 123.919 63.8 122.753 63.8C121.619 63.8 120.486 63.8333 119.353 63.9C118.253 63.9333 117.419 63.9667 116.853 64V62.95C117.986 62.95 118.786 62.7 119.253 62.2C119.719 61.7 119.953 60.75 119.953 59.35V44.55C119.953 43.5833 119.869 42.7167 119.703 41.95C119.536 41.15 119.186 40.5167 118.653 40.05C118.119 39.55 117.319 39.3 116.253 39.3C115.019 39.3 113.919 39.65 112.953 40.35C112.019 41.05 111.269 42.0167 110.703 43.25C110.169 44.45 109.903 45.8 109.903 47.3V59.35C109.903 60.75 110.136 61.7 110.603 62.2C111.103 62.7 111.903 62.95 113.003 62.95V64C112.469 63.9667 111.653 63.9333 110.553 63.9C109.486 63.8333 108.369 63.8 107.203 63.8C106.069 63.8 104.886 63.8333 103.653 63.9C102.419 63.9333 101.503 63.9667 100.903 64V62.95C102.203 62.95 103.119 62.7 103.653 62.2C104.219 61.7 104.503 60.75 104.503 59.35V43.65C104.503 42.15 104.253 41.05 103.753 40.35C103.253 39.6167 102.303 39.25 100.903 39.25V38.2C101.969 38.3 103.003 38.35 104.003 38.35C105.136 38.35 106.186 38.3 107.153 38.2C108.153 38.0667 109.069 37.8833 109.903 37.65V43.1C110.769 41.0333 111.953 39.5833 113.453 38.75C114.986 37.9167 116.603 37.5 118.303 37.5ZM139.63 57.85C140.63 57.85 141.463 58.1833 142.13 58.85C142.83 59.4833 143.18 60.3 143.18 61.3C143.18 62.2667 142.83 63.0833 142.13 63.75C141.463 64.3833 140.63 64.7 139.63 64.7C138.63 64.7 137.78 64.3833 137.08 63.75C136.413 63.0833 136.08 62.2667 136.08 61.3C136.08 60.3 136.413 59.4833 137.08 58.85C137.78 58.1833 138.63 57.85 139.63 57.85Z" fill="#FAFAFB"/>
</svg>
