<svg width="41" height="41" viewBox="0 0 41 41" fill="none" xmlns="http://www.w3.org/2000/svg">
<circle cx="20.5" cy="20.5" r="20" fill="#FEFFFE" stroke="black"/>
<path d="M25.3355 30.3351C22.7965 32.8731 19.1555 33.3481 17.2035 31.3951C15.2495 29.4421 15.7255 25.8021 18.2635 23.2631C20.8035 20.7251 24.4445 20.2501 26.3965 22.2031C28.3495 24.1551 27.8735 27.7961 25.3355 30.3351Z" stroke="black" stroke-linecap="round" stroke-linejoin="round"/>
<path d="M26.3951 22.2031C26.3951 22.2031 26.0421 24.6781 24.6271 26.0921C23.2131 27.5061 20.3851 26.0921 18.9711 27.5061C17.5561 28.9201 17.2031 31.3961 17.2031 31.3961" stroke="black" stroke-linecap="round" stroke-linejoin="round"/>
<path d="M16.5 9C16.5 8.72386 16.2761 8.5 16 8.5C15.7239 8.5 15.5 8.72386 15.5 9H16.5ZM16.5 28V9H15.5V28H16.5Z" fill="black"/>
</svg>
